<svg width="200" height="80" viewBox="0 0 200 80" xmlns="http://www.w3.org/2000/svg">
  <!-- Stanford University Logo - S with tree, transparent background -->
  <g>
    <!-- Red S shape -->
    <path d="M 15 5 Q 15 5 25 5 L 45 5 Q 55 5 55 15 L 55 20 Q 55 25 50 25 L 35 25 Q 30 25 30 30 L 30 35 Q 30 40 35 40 L 50 40 Q 60 40 60 50 L 60 55 Q 60 65 50 65 L 25 65 Q 15 65 15 55 L 15 50 Q 15 45 20 45 L 35 45 Q 40 45 40 40 L 40 35 Q 40 30 35 30 L 20 30 Q 10 30 10 20 L 10 15 Q 10 5 20 5 Z" 
          fill="#8C1515" stroke="#FFFFFF" stroke-width="1.5"/>
    <!-- Tree inside S -->
    <path d="M 35 30 L 35 40 M 30 35 L 40 35 M 35 25 L 32 30 L 35 30 L 38 30 Z" 
          fill="#2E7D32" stroke="#FFFFFF" stroke-width="1"/>
    <circle cx="35" cy="32" r="2" fill="#2E7D32"/>
  </g>
</svg>
